<svg id="Layer_1" data-name="Layer 1" xmlns="http://www.w3.org/2000/svg" viewBox="0 0 1108.59 589.862">
  <g>
    <path d="M322.593,75.24s8.25,26.964,12.855,40.947a4.467,4.467,0,0,1-4.137,5.863l-26.592.658a4.472,4.472,0,0,1-4.57-4.147L297.421,80.81Z" fill="#0f1011"></path>
    <path d="M283.334,136.645s7.634-4.284,5.4-25.293l15.9-3.342s-1.344,18.916,6.879,24.715Z" fill="#E98862"></path>
    <g opacity="0.15">
      <path d="M308.152,128.858l-13.51-9.835,10.418-.358A28.761,28.761,0,0,0,308.152,128.858Z"></path>
    </g>
    <path d="M279.482,103.407c1.258,6.359,4.887,12.325,10.571,14.252a40.485,40.485,0,0,0,19.414,2.154c17.45-1.851,13.044-41.525,4.558-49.049S281.294,68.711,278.638,81.7C277.265,88.415,278.285,97.357,279.482,103.407Z" fill="#E98862"></path>
    <g>
      <circle cx="304.342" cy="96.441" r="1.449" fill="#0f1011"></circle>
      <circle cx="315.748" cy="95.232" r="1.449" fill="#0f1011"></circle>
      <path d="M314.328,92.129a.681.681,0,0,1-.007-1.362l3.839-.043h.008a.681.681,0,0,1,.008,1.362l-3.84.043Z" fill="#0f1011"></path>
      <path d="M301.137,93.892a.681.681,0,0,1-.175-1.339l3.762-1a.681.681,0,0,1,.35,1.317l-3.762,1A.663.663,0,0,1,301.137,93.892Z" fill="#0f1011"></path>
      <path d="M305.284,107.834s5.361.436,9.079-.962c0,0,.054,3.521-4.169,3.97S305.284,107.834,305.284,107.834Z" fill="#fff"></path>
    </g>
    <g opacity="0.15">
      <path d="M310.965,104.323a.5.5,0,0,1-.171-.974l2.924-.975-2.171-4.541a.5.5,0,0,1,.9-.43l2.659,5.562-4,1.333A.5.5,0,0,1,310.965,104.323Z"></path>
    </g>
    <path d="M323.585,78.473S320.513,57.83,287.46,63.736c-8.24,1.472-19.8,8.221-21.178,29.433-.628,9.731-3.748,18.968-6.158,24.825a4.471,4.471,0,0,0,4.237,6.183l23.323-.569a4.465,4.465,0,0,0,4.361-4.565c0-.066,0-.132-.009-.2-.267-3.966-.565-10.684-.593-20.962,1.067-5.893-2.265-9.947,2.457-8.715C311.436,93.73,322.286,78.84,323.585,78.473Z" fill="#0f1011"></path>
    <path d="M297.177,102.86a6.143,6.143,0,0,1-12.218,1.3,6.04,6.04,0,0,1,5.257-6.734c.068-.009.136-.016.2-.022C294.794,97.149,296.818,99.486,297.177,102.86Z" fill="#E98862"></path>
  </g>
  <path d="M1108.59,589.862H0c12.147-39.134,34.58-72.332,66.2-82.181,46.259-14.388,95.214,25.171,141.37,10.3,26.223-8.442,46.868-33.045,68.561-53.475,81.841-77.085,194-99.868,290.837-59.067,50.621,21.317,96.749,58.594,148.605,74.449,67.054,20.5,137.178,3.5,206.132.7C988.866,477.852,1085.09,512.422,1108.59,589.862Z" fill="#f3f5fd"></path>
  <g>
    <path d="M993.019,408.633c-6.213,18.823-27.657,35.549-21.25,49.391,2.437,5.262,4.883,10.766,6.009,16.387a28.6,28.6,0,0,1,.359,10.2c-2.31,14.659-16.027,24.395-28.782,31.977-.787.466-1.583.941-2.379,1.417-12.085,7.242-24.744,15.58-28.627,28.948-2.155,7.426-1.2,15.367-2.1,23.045a48.2,48.2,0,0,1-7.018,19.862H827.778c-7.232-7.97-6.63-21.366-1.126-30.763,5.892-10.057,15.843-16.891,24.822-24.327,7.757-6.427,15.319-14.163,18.279-23.6a28.644,28.644,0,0,0,1.039-4.572c.718-5.106.33-31.19,9.183-47.247,13.688-24.793,35.889-18.687,42.674-32.675,2.6-5.359,4.844-71.2,48.091-59.041A32.161,32.161,0,0,1,993.019,408.633Z" fill="#dee8f5"></path>
    <path d="M1072.125,511.59a19.8,19.8,0,0,1-3.98,2.117c-11.668,4.378-44.12,3.892-48.868,15.415-2.232,5.417-2.766,11.4-4.678,16.94-4.34,12.571-15.794,22-28.609,25.54-4.611,1.272-9.387,1.864-13.949,3.281-8.814,2.747-16.114,8.271-22.531,14.979H844.31a41.43,41.43,0,0,1,18.988-35.1C875,547.382,889.77,546,901.254,538.3c7.572-5.087,13.018-12.436,17.338-20.561a150.093,150.093,0,0,0,7.27-16.4c3.214-8.339,6.572-17.289,13.872-22.453a35.617,35.617,0,0,1,11.718-4.912c10.542-2.757,18.648-1.136,26.326.437,9.319,1.9,18.017,3.718,29.695-2.485,20.716-11.009,51-65.9,81.271-13.746C1100.879,479.1,1084.133,503.553,1072.125,511.59Z" fill="#8ddbe0"></path>
  </g>
  <g>
    <path d="M99.938,408.633c6.213,18.823,27.657,35.549,21.25,49.391-2.437,5.262-4.883,10.766-6.009,16.387a28.579,28.579,0,0,0-.359,10.2c2.31,14.659,16.027,24.395,28.782,31.977.787.466,1.582.941,2.379,1.417,12.085,7.242,24.744,15.58,28.627,28.948,2.155,7.426,1.2,15.367,2.1,23.045a48.185,48.185,0,0,0,7.018,19.862h81.456c7.232-7.97,6.63-21.366,1.126-30.763-5.893-10.057-15.843-16.891-24.822-24.327-7.757-6.427-15.319-14.163-18.279-23.6a28.644,28.644,0,0,1-1.039-4.572c-.719-5.106-.33-31.19-9.183-47.247-13.688-24.793-35.889-18.687-42.674-32.675-2.6-5.359-4.845-71.2-48.091-59.041A32.161,32.161,0,0,0,99.938,408.633Z" fill="#dee8f5"></path>
    <path d="M20.832,511.59a19.8,19.8,0,0,0,3.98,2.117c11.668,4.378,44.12,3.892,48.867,15.415,2.233,5.417,2.767,11.4,4.679,16.94,4.34,12.571,15.794,22,28.608,25.54,4.611,1.272,9.387,1.864,13.95,3.281,8.814,2.747,16.114,8.271,22.531,14.979h105.2a41.432,41.432,0,0,0-18.988-35.1c-11.7-7.377-26.472-8.756-37.956-16.463-7.572-5.087-13.018-12.436-17.338-20.561a150.093,150.093,0,0,1-7.27-16.4c-3.214-8.339-6.572-17.289-13.873-22.453a35.6,35.6,0,0,0-11.717-4.912c-10.542-2.757-18.648-1.136-26.326.437-9.319,1.9-18.017,3.718-29.7-2.485-20.715-11.009-51-65.9-81.27-13.746C-7.922,479.1,8.824,503.553,20.832,511.59Z" fill="#8ddbe0"></path>
  </g>
  <g>
    <path d="M169.179,369.25c-.621-.107-2.508-.437-20.47-5.813l6.023-20.118c7.615,2.28,16.773,4.95,18.291,5.289-.1-.021-.177-.035-.24-.046Z" fill="#E98862"></path>
    <path d="M135.351,387.408a4.108,4.108,0,0,0,3.458,4.925h0a4.107,4.107,0,0,0,4.014-1.847l13.2-22.14a3.46,3.46,0,0,0,.3-2.874,19.109,19.109,0,0,1-.882-11.929,17.035,17.035,0,0,1,5.025-7.933,1.546,1.546,0,0,0-.635-2.725l-11.678-2.544a2.678,2.678,0,0,0-3.189,2.058Z" fill="#c1d8ed"></path>
    <path d="M327.794,508.937l-19.5-7.8c2.952-7.38,6.433-16.263,6.907-17.744-.03.093-.051.173-.067.235l20.282,5.443C335.256,489.68,334.759,491.53,327.794,508.937Z" fill="#E98862"></path>
    <path d="M350.47,524.392a4.107,4.107,0,0,0,5.215-3h0a4.108,4.108,0,0,0-1.479-4.164l-20.867-15.134a3.462,3.462,0,0,0-2.836-.555,19.11,19.11,0,0,1-11.96-.191,17.034,17.034,0,0,1-7.45-5.717,1.546,1.546,0,0,0-2.771.389l-3.581,11.4a2.677,2.677,0,0,0,1.763,3.36Z" fill="#c1d8ed"></path>
    <path d="M368.557,373.766c-1.649-22.731-25.537-125.705-28.073-136.811l-75.518,5.48S242.553,340.6,241.608,343.343l-72.8-3.171L162.348,376.6l90.266,12.708a21.034,21.034,0,0,0,23.888-12.52s26.285-84.766,26.82-86.33l25.633,77.285L305.67,488.234l35.616,10.026S369.224,382.958,368.557,373.766Z" fill="#262626"></path>
  </g>
  <g>
    <path d="M434.121,72.178l8.938,7.77s14.054-6.1,14.979-21.208c.306-5.008-5.35-5.444-6.338-4.016-3.265,4.718-5.942,9.659-10.3,11.974.556-2.177,1.14-5.2.177-5.464C439.049,60.526,434.121,72.178,434.121,72.178Z" fill="#E98862"></path>
    <path d="M332.017,154.215l-4.157-21.4,68.768-13.358,36.529-52.639,17.914,12.431-39.056,56.28a10.9,10.9,0,0,1-6.878,4.487Z" fill="#367CFF"></path>
    <path d="M209.685,54.433l-11.536,2.679S189.5,43.1,195.763,29.318c2.074-4.568,7.276-2.3,7.48-.579.675,5.7-.189,13.357,2.574,17.441.528-2.183,1.426-5.124,2.4-4.911C210.788,41.83,209.685,54.433,209.685,54.433Z" fill="#E98862"></path>
    <path d="M347.292,244.172c-3.62,9.85-85.57,18.72-87.67,1.87-1.33-10.72,7.59-20.67,6.35-41.64s-22.13-46.62-7.34-63.27c4.29-4.83,11.99-8.25,21.6-8.83,1.04,5.56,35.06,3.58,34.99-1.93,1.3-.06,2.31-.1,2.94-.11,33.2-.54,20.88,38.02,22.2,65.72C341.9,228.422,351.012,234,347.292,244.172Z" fill="#367CFF"></path>
    <path d="M315.222,130.372c.07,5.51-2.46,13.75-11.62,14.9-12.24,1.54-22.33-7.41-23.37-12.97h.03C292.342,131.592,308.162,130.682,315.222,130.372Z" fill="#E98862"></path>
    <path d="M258.58,161.868l-58.138-36.683a10.9,10.9,0,0,1-5.065-8.563l-3.942-65.245L213.2,50.062l3.605,59.665,53.411,33.7Z" fill="#367CFF"></path>
  </g>
  <path d="M650.624,63.279l-4.109,11.107s-15.256,1.4-23.323-11.41c-2.673-4.246,2.079-7.344,3.631-6.566,5.13,2.571,9.851,5.62,14.781,5.559-1.533-1.642-3.494-4.01-2.779-4.708C640.706,55.425,650.624,63.279,650.624,63.279Z" fill="#E98862"></path>
  <path d="M743.982,141.3l-58.718-10.866a10.9,10.9,0,0,1-6.389-3.739L635.648,74.845,652.4,60.882,693.1,109.708l54.848,10.149Z" fill="#367CFF"></path>
  <path d="M936.651,327.139l-7.987-19.422c-.059.024-.135.055-.226.1,1.41-.66,9.774-5.247,16.714-9.119l10.23,18.34C939.007,326.17,937.233,326.9,936.651,327.139Z" fill="#E98862"></path>
  <path d="M973.608,337.55a4.107,4.107,0,0,1-2.311,5.556h0a4.107,4.107,0,0,1-4.318-.935L949.3,323.41a3.463,3.463,0,0,1-.913-2.742,19.113,19.113,0,0,0-1.719-11.837,17.034,17.034,0,0,0-6.622-6.658,1.546,1.546,0,0,1,.031-2.8l10.852-5.009a2.677,2.677,0,0,1,3.558,1.319Z" fill="#c1d8ed"></path>
  <path d="M812,497.822c-10.565-15.488-11.449-17.185-11.74-17.744l18.622-9.7c-.029-.057-.067-.13-.117-.215.784,1.344,6.1,9.264,10.583,15.83Z" fill="#E98862"></path>
  <path d="M793.206,517.815a4.109,4.109,0,0,1-5.742-1.8h0a4.108,4.108,0,0,1,.544-4.385l17.1-19.289a3.466,3.466,0,0,1,2.649-1.156,19.109,19.109,0,0,0,11.636-2.773,17.03,17.03,0,0,0,6.037-7.192,1.547,1.547,0,0,1,2.79-.22l5.962,10.359a2.678,2.678,0,0,1-1,3.662Z" fill="#c1d8ed"></path>
  <path d="M742.971,374.665c-3.3-22.549-2.253-128.253-2.178-139.644l74.915-10.982s43.113,91,44.629,93.469l70.387-18.839,14.19,34.17-85.382,31.929a21.034,21.034,0,0,1-26.03-7.058s-43.995-77.075-44.855-78.487l-8.313,81,48.792,112.6-32.605,17.491S744.308,383.784,742.971,374.665Z" fill="#262626"></path>
  <path d="M848.937,29.837l11.744-1.526s3.2-16.15-7.488-26.872c-3.542-3.554-7.622.387-7.211,2.074,1.361,5.574,4.851,12.447,3.691,17.239-1.258-1.861-3.129-4.3-3.969-3.76C843.494,18.416,848.937,29.837,848.937,29.837Z" fill="#E98862"></path>
  <path d="M824.042,227.332c-.79,16.96-83.18,14.49-87.55,4.95-4.5-9.85,4.15-16.13,3.16-48.58-.84-27.72-16.11-65.21,17.03-67.25.63-.04,1.64-.08,2.94-.13.36,5.5,34.42,4.84,35.03-.78,9.62-.17,17.57,2.63,22.22,7.11,16.04,15.46-2.79,42.65-2.4,63.65S824.532,216.542,824.042,227.332Z" fill="#367CFF"></path>
  <path d="M794.652,115.542c-.61,5.62-9.98,15.33-22.29,14.74-9.24-.44-12.38-8.46-12.74-13.96,7.06-.24,22.9-.55,35-.78Z" fill="#E98862"></path>
  <path d="M818.014,136.94l-14.268-16.487,41.511-35.925-.15-60.545,21.805-.053.162,65.543a10.909,10.909,0,0,1-3.768,8.271Z" fill="#367CFF"></path>
  <g>
    <path d="M533.933,192.332c-21.855-16.666-13.825-61.463-11.7-65.4.787-1.457.137-2.034-.992-2.184-1.434-.516-4.492.23-5.494.5-.779-.686-3.19-2.71-4.7-2.883-1.079-.366-1.917-.137-1.858,1.517.161,4.472-12.493,48.189-39.471,53.444-5.668,1.1-4.542,4.259-4.542,4.259l70.945,16.579S538.526,195.834,533.933,192.332Z" fill="#0cbc8b"></path>
    <g opacity="0.09">
      <path d="M536.117,198.165l-4.552-1.064s2.41-2.331-2.183-5.832c-21.856-16.666-10.574-60.7-8.447-64.641.617-1.145.346-1.747-.35-2.026a3.056,3.056,0,0,1,.655.146c1.131.151,1.781.729,1,2.184-2.127,3.937-10.157,48.735,11.7,65.4C538.527,195.834,536.117,198.165,536.117,198.165Z"></path>
    </g>
    <path d="M626.049,93.6c-9.695,9.4-19.02,10.475-29.258,10.956-10.065.473-18.757.88-25.946,8.359a23.948,23.948,0,0,0-4.326,6.008v.007a16.984,16.984,0,0,0-.709,1.628,4.792,4.792,0,0,1-1.261,1.908,3.851,3.851,0,0,1-3.641.869,4.243,4.243,0,0,1-3.284-2.6,4.458,4.458,0,0,1,.042-3.164q.123-.327.258-.653a31.95,31.95,0,0,1,6.664-10.015c9.582-9.971,21.384-10.526,31.8-11.018,9.548-.446,16.286-1.4,23.623-8.514,3.65-3.543,8.738-12.445,7.1-20.847-1.273-6.539-4.81-11.024-10.507-13.336-15.554-6.309-26.815,7.649-27.287,8.245a4.34,4.34,0,0,1-6.84-5.343,39.351,39.351,0,0,1,10.308-8.749c8.691-5.1,18.058-5.858,27.081-2.2,8.35,3.385,13.949,10.388,15.766,19.721C637.7,75.5,632.286,87.551,626.049,93.6Z" fill="#0cbc8b"></path>
    <path d="M430.912,48c4.526,12.72,13.058,17.971,22.023,22.94,8.812,4.885,16.424,9.1,19.554,18.991a23.98,23.98,0,0,1,1.215,7.3l0,.007a17.243,17.243,0,0,1-.086,1.774,4.8,4.8,0,0,0,.285,2.269,3.847,3.847,0,0,0,2.879,2.392,4.242,4.242,0,0,0,4.1-.878,4.465,4.465,0,0,0,1.365-2.855q.033-.348.057-.7a31.952,31.952,0,0,0-1.535-11.931c-4.171-13.185-14.5-18.913-23.621-23.968-8.361-4.632-14.628-8.627-18.053-18.253-1.7-4.794-1.667-14.877,3.521-21.685,4.039-5.3,9.2-7.75,15.328-7.3,16.74,1.237,20.649,18.74,20.808,19.483a4.34,4.34,0,0,0,8.5-1.758,39.348,39.348,0,0,0-5.364-12.411c-5.53-8.424-13.591-13.254-23.3-13.97-8.985-.666-17.108,3.131-22.873,10.692C429.136,26.76,428,39.812,430.912,48Z" fill="#0cbc8b"></path>
    <path d="M594.176,33.759a6.143,6.143,0,0,0-4.707-6.694L541.611,15.881,493.753,4.7a6.143,6.143,0,0,0-7.186,3.915c-4.72,13.25-16,49.1-9,71.972,8.714,28.486,28.739,42.625,33.5,43.738L516,125.475l4.933,1.153c4.765,1.113,28.981-2.687,49.417-24.361C586.758,84.866,592.535,47.728,594.176,33.759Z" fill="#0cbc8b"></path>
    <g opacity="0.09">
      <path d="M594.176,33.759a6.143,6.143,0,0,0-4.707-6.694l-15.44-3.609-3.733-.872S561.861,73.4,549.9,97.049s-29.134,29.539-28.963,29.579c4.765,1.113,28.981-2.687,49.417-24.361C586.758,84.866,592.535,47.728,594.176,33.759Z"></path>
    </g>
    <rect x="489.979" y="161.939" width="17.403" height="72.824" transform="translate(192.056 638.813) rotate(-76.847)" fill="#0f1011"></rect>
    <rect x="494.132" y="168.013" width="4.185" height="81.698" transform="translate(179.923 644.54) rotate(-76.847)" fill="#0f1011"></rect>
    <rect x="493.179" y="167.89" width="4.185" height="90.095" transform="translate(175.219 646.761) rotate(-76.847)" fill="#0f1011"></rect>
  </g>
  <g>
    <path d="M792.373,120.122s-8.034-3.471-7.99-24.6l-16.162-1.681s3.293,18.676-4.286,25.3Z" fill="#E98862"></path>
    <g opacity="0.15">
      <path d="M766.884,114.942l12.421-11.178-10.4.723A28.77,28.77,0,0,1,766.884,114.942Z"></path>
    </g>
    <path d="M792.769,86.663c-.594,6.456-3.587,12.764-9.04,15.27-6.473,2.975-11.4,3.535-19.088,4.149-10.492.838-11.019-10.131-12.195-21.134-1.18-11.047-1.249-22.992,2.59-27.181,7.661-8.361,32.343-5.426,36.327,7.217C793.424,71.522,793.334,80.518,792.769,86.663Z" fill="#E98862"></path>
    <path d="M784.1,101.3c.416,1.033.684,1.476,1.592.833,3.567-2.524,11.606-8.038,13.028-26.4,1.274-16.456-9.286-22.358-17.472-24.11-7.056-1.511-23.172-.65-30.357,4.5-6.191,4.441,1.042,13.04,1.042,13.04,2.885-.1,3.662,2.327,10.444,1.785,5.243-.419,8.466-3.034,13.391-3.22,4.509-.17,5.651,2.5,5.632,4.26C781.28,82.712,782.627,97.646,784.1,101.3Z" fill="#0f1011"></path>
    <g>
      <circle cx="767.322" cy="82.306" r="1.449" fill="#0f1011"></circle>
      <circle cx="755.852" cy="82.282" r="1.449" fill="#0f1011"></circle>
      <path d="M753.049,79.406a.68.68,0,0,1-.062-1.358l3.822-.354a.68.68,0,1,1,.126,1.355l-3.822.354Z" fill="#0f1011"></path>
      <path d="M770.177,79.441a.635.635,0,0,1-.107-.008l-3.845-.606a.681.681,0,0,1,.212-1.345l3.845.606a.681.681,0,0,1-.105,1.353Z" fill="#0f1011"></path>
    </g>
    <path d="M775.118,85.24a6.143,6.143,0,0,0,12.286.025,6.041,6.041,0,0,0-6.13-6.155C776.9,79.316,775.125,81.847,775.118,85.24Z" fill="#E98862"></path>
    <g opacity="0.15">
      <path d="M761.551,90.83a.5.5,0,0,0,.068-.987l-3.01-.667,1.69-4.74a.5.5,0,0,0-.942-.336l-1.88,5.273a.5.5,0,0,0,.363.656l3.562.79A.476.476,0,0,0,761.551,90.83Z"></path>
    </g>
    <path d="M767.563,93.735s-5.287.988-9.128-.019c0,0,.31,3.509,4.557,3.518S767.563,93.735,767.563,93.735Z" fill="#fff"></path>
  </g>
</svg>